PathFileType	4	(X/Y/Z)	22_1_49_p1_0-267.trc
DataRate	CameraRate	NumFrames	NumMarkers	Units	OrigDataRate	OrigDataStartFrame	OrigNumFrames
56.0	56.0	5	27	m	56.0	33	268
Frame#	Time	RHip			RKnee			RAnkle			RBigToe			RSmallToe			RHeel			LHip			LKnee			LAnkle			LBigToe			LSmallToe			LHeel			Neck			Head			Nose			RShoulder			RElbow			RWrist			RThumb			RIndex			RPinky			LShoulder			LElbow			LWrist			LThumb			LIndex			LPinky			
		X1	Y1	Z1	X2	Y2	Z2	X3	Y3	Z3	X4	Y4	Z4	X5	Y5	Z5	X6	Y6	Z6	X7	Y7	Z7	X8	Y8	Z8	X9	Y9	Z9	X10	Y10	Z10	X11	Y11	Z11	X12	Y12	Z12	X13	Y13	Z13	X14	Y14	Z14	X15	Y15	Z15	X16	Y16	Z16	X17	Y17	Z17	X18	Y18	Z18	X19	Y19	Z19	X20	Y20	Z20	X21	Y21	Z21	X22	Y22	Z22	X23	Y23	Z23	X24	Y24	Z24	X25	Y25	Z25	X26	Y26	Z26	X27	Y27	Z27	
33	0.5892857142857143	0.26148039403508055	0.6118665959066494	1.0401051391056026	0.2759466943745278	0.7651991626707894	1.4233807110025807	0.29738563176460264	0.924467561190108	1.827965277945169	0.2435993396180641	0.6953432001916737	1.873349407588578	0.30491743631190116	0.7342473499240588	1.8776988302509818	0.2966791672985043	1.006298741208578	1.8823058249856783	0.03557099220648542	0.6588956311104482	1.0383434919040055	0.0766132548314875	0.7921702763977311	1.4174070720995333	0.09358519194086107	0.9074211537557558	1.8307649278382707	0.10091530269958664	0.7307671125293068	1.8809253787265894	0.05281898849197447	0.7723243684464413	1.8795780060725669	0.12622721906141046	0.9650630069212296	1.873883319937805	0.11832080266110896	0.44519671000301236	0.48985006576029133	0.0899811896517982	0.3207379179564595	0.2589985886648856	0.08534498258002624	0.29074628510821965	0.4115102294618792	0.26711581528291306	0.46181419182143996	0.5654797429303898	0.3227032286909375	0.4181032278466706	0.8220427660809168	0.24815841845121644	0.47120839771160805	1.074344078505467	0.13083992622021254	0.46773050605795813	1.1597237898249413	0.13519746778420796	0.481890184146311	1.206949765025115	0.17240918216749712	0.5199574348256023	1.2106933536765772	-0.03770850485813754	0.4762217257914725	0.5677589222889716	-0.05029909018588974	0.5361750784928694	0.8319814555606653	0.02831191090960381	0.47816267422215536	1.0569976292257564	0.12424420449307412	0.4669749165833345	1.1379153317103317	0.12161337257615373	0.4697800446668227	1.16164279443786	0.11380576874679307	0.5007059491912802	1.1726112291197917
34	0.6071428571428571	0.2642009604651067	0.596136969305585	1.0385657761936369	0.2759687350562919	0.7652645945139172	1.4231871128612235	0.2973746193595026	0.9244426938348538	1.827982418141456	0.24361109637098657	0.6954945053090047	1.8734271803711158	0.30491991384568096	0.7340343115727558	1.8776429356272615	0.29035361947963384	0.9900378689903915	1.8772773520985677	0.04000409284675659	0.6449336252167674	1.0419088864308412	0.07710162307465708	0.7909393870286276	1.412814022733665	0.09433386071100858	0.9057475631648473	1.8256482422509777	0.10088783418721949	0.7304387445429833	1.8808289452621478	0.05280494219584645	0.7716182277462815	1.879246509664325	0.12678044990220275	0.9633876622723895	1.8682105056434977	0.113721819900935	0.433695653124818	0.491162122302015	0.08983048456988205	0.3208499032639488	0.2589767543357012	0.08149316127547067	0.2909882843199617	0.4117624660491666	0.267413491889418	0.46208660780488603	0.5688834885150014	0.3267433916746381	0.4171760948028708	0.8256253864100309	0.25333142851302853	0.471756794036705	1.07436949806506	0.13196525437105294	0.470659536585277	1.1647573399423328	0.14405799713940204	0.4817698581134501	1.2251408427785035	0.18985535269934367	0.5013267373794609	1.2168104606062187	-0.03770927398033844	0.4760568478942449	0.5678361524619084	-0.04933630249562031	0.5373071505020265	0.8325056524799032	0.02796519772526099	0.4791282146197288	1.0572605952123257	0.11996305276974811	0.4685744783945159	1.1426382125342802	0.1266679658458769	0.48519188775848776	1.1712396532106006	0.10621025353956955	0.532032644991193	1.1862037848869793
35	0.625	0.2564009851787319	0.5973510936317139	1.039137794574527	0.2755656823383646	0.7655459422030463	1.4192130498916342	0.2957148916152496	0.9431452718261653	1.8340828119052979	0.243706016222819	0.6963221724163074	1.8737402760212492	0.3049303701377859	0.7344749469969925	1.877729874561316	0.2904679315041306	0.9907429163210477	1.8776254122749887	0.04476103986540858	0.6582524685540677	1.043540549796688	0.0761207967856988	0.792628731929542	1.4141424679595218	0.09439153327415489	0.9060217473162542	1.8258241050716804	0.10086374165420982	0.7304120514107901	1.8808711890505971	0.0527207291305155	0.7719664255809662	1.8794895763254074	0.12662643851807173	0.9635846466764783	1.868400024760148	0.11370539936859272	0.43382634073758003	0.49116895985162723	0.08978510755633991	0.3207802361256316	0.25899017224735477	0.0814882860116195	0.290983506050235	0.41174302414336755	0.26705994638972974	0.4619433593138493	0.5654921340976706	0.3252948152866114	0.4299996014497371	0.8261199472836384	0.2614357777315647	0.4611326710654847	1.076153463214984	0.14477971617135293	0.46294611625236504	1.183627669124179	0.16769427706553036	0.4385953601374252	1.2209507247131768	0.2012206283064894	0.4620560642373497	1.2206450521502428	-0.037680274613244275	0.47587155460593605	0.5677931673104495	-0.05003131838749022	0.5356981116211296	0.8286164159568927	0.023755586029112704	0.47848834150313896	1.057488249211472	0.1215581719795378	0.4692002747443687	1.1490146985604557	0.11466526422607255	0.48780186913502516	1.1840118095282068	0.05231603603320254	0.549724467533175	1.2028182999695107
36	0.6428571428571429	0.26178528682086377	0.611971516556903	1.044140022373368	0.28046249295401554	0.7656272669266614	1.4236049236485675	0.29761220648113446	0.9231952284003523	1.8324816214870498	0.23744611505617214	0.6814638576582595	1.868916589008996	0.30455728763466083	0.7334468387776388	1.877604113229148	0.28919813720090276	0.9918364919287814	1.8825014402971367	0.04475028826176391	0.6596219169250477	1.0514236744310963	0.08206050743101514	0.7953302454905502	1.4230128245547673	0.09446999030335293	0.9057816252867708	1.8256053835394215	0.09967974920549254	0.7276182183496367	1.875742706689856	0.053091603324587545	0.7717507202605602	1.879190739774423	0.1267304833248403	0.9635813081107595	1.8683312809471724	0.11824195590267031	0.4453437927062263	0.4898042139396782	0.08962328704452005	0.32109277588705004	0.25898968854081594	0.08142883202898722	0.2908876620730572	0.41162854954919126	0.26715610702569403	0.46301178834995144	0.5691048997192232	0.3248037441785698	0.43026862052377374	0.8260599167266756	0.26659331967593874	0.47132318400234796	1.0733915432865146	0.15953394063558046	0.43778626540132554	1.1888313720965742	0.18247059562620482	0.4243077195663834	1.2243344973671249	0.22239150446964773	0.5001671877455082	1.228733932184771	-0.037533029341787205	0.4757013298991442	0.567703930317015	-0.05007670461032417	0.5357169254959433	0.8284470480942151	0.020689481272291185	0.4913228575688967	1.0589904317220007	0.11468550508188165	0.48180184180415625	1.150822048057883	0.09890851968433892	0.49011608271508805	1.184168824251755	0.04315466581029249	0.527272565391325	1.198599687935298
37	0.6607142857142857	0.25171391543240573	0.5989538674973368	1.043360782015869	0.2804184113253391	0.7656609971033229	1.423418706271043	0.29736178387938583	0.9243146257168964	1.828099362805673	0.24282075565184214	0.6948377601458623	1.8736101798104587	0.30445987041529565	0.7335598797834315	1.8776420650101415	0.29562216269552943	1.0080944549066562	1.887337794639219	0.04476653144201629	0.6592937892501338	1.0510901332916425	0.07748411664729339	0.7949821339114053	1.4197285943055444	0.09441653209683214	0.9059070424207833	1.825677786814489	0.09962098682925545	0.7274650193649252	1.8756947555657717	0.05300814717287811	0.7712814127276547	1.8790019659310535	0.12663338511863362	0.9638988726194962	1.868543456766988	0.11373559044821227	0.434069829286133	0.4910947185010349	0.08973987527783706	0.32117704235092953	0.25894586437845274	0.0814373405087778	0.2908350427185377	0.411656993402118	0.2672028322159181	0.46327707273630303	0.569104715857451	0.32364563843334077	0.42822493936618683	0.8186945704548864	0.2724245357332698	0.48372893913314535	1.074381262898048	0.17361699471502856	0.4221650695542518	1.1856854530557515	0.18615561584420862	0.4144199254751508	1.223119305018743	0.2330792108493922	0.49000370338805543	1.2339302630753923	-0.03751226338385475	0.47580609018634445	0.5676787878985282	-0.05036859154448416	0.5364752281126758	0.8319525349294595	0.01600136081826004	0.4794654992607629	1.0650737504602492	0.10317084463598333	0.48221735677615224	1.1516719418728651	0.07170149392261532	0.4540630174890842	1.1911198343679053	0.032991774024664265	0.510105734921408	1.1967865333344447
